<svg xmlns="http://www.w3.org/2000/svg" viewBox="0 0 128 128" width="128" height="128">
  <path d="M81.504 9.465c.973 1.207 1.469 2.836 2.457 6.09l21.656 71.136a90.079 90.079 0 00-25.89-8.765L65.629 30.28a1.833 1.833 0 00-3.52.004L48.18 77.902a90.104 90.104 0 00-26.003 8.79l21.745-71.142c.996-3.254 1.492-4.883 2.465-6.09a8.196 8.196 0 013.543-2.691C52.004 5.5 53.73 5.5 57.18 5.5h13.328c3.449 0 5.175 0 7.25 1.27a8.196 8.196 0 013.746 2.695z" fill="#000"/>
  <path d="M84.094 90.997c-3.97 3.394-11.842 5.707-20.829 5.707-11.585 0-21.42-3.894-23.594-9.152-1.381 4.24-1.68 9.08-1.68 12.084 0 0-.886 14.598 9.272 24.756a9.012 9.012 0 010-12.747 9.012 9.012 0 016.372-2.64h.024a9.013 9.013 0 016.396 15.387c-5.2 5.2-2.252 14.108 4.676 14.108 4.703 0 14.831-3.088 18.21-16.55 1.127-4.497 1.543-9.474 1.543-12.248 0-4.22-.9-9.453-2.762-14.04a17.63 17.63 0 01.266 3.08c0 6.023-3.894 10.255-3.894 10.255z" fill="url(#a-astro)"/>
  <defs>
    <linearGradient id="a-astro" x1="64" y1="82" x2="64" y2="122.5" gradientUnits="userSpaceOnUse">
      <stop stop-color="#D83333"/>
      <stop offset="1" stop-color="#F041FF"/>
    </linearGradient>
  </defs>
</svg>
