<svg xmlns="http://www.w3.org/2000/svg" viewBox="0 0 410 404" width="410" height="404">
  <path d="M399.641 59.525l-183.998 329.02c-3.798 6.793-13.559 6.96-17.575.301L7.755 59.836c-4.403-7.3 2.266-16.003 10.28-13.768L205.31 95.95a8.003 8.003 0 004.658-.013l183.29-49.58c7.97-2.156 14.616 6.394 10.383 13.168z" fill="url(#a-vite)"/>
  <path d="M292.965 1.578l-121.58 22.985a4.002 4.002 0 00-3.274 3.585l-18.29 159.58a4.003 4.003 0 004.628 4.382l51.103-9.146a4.001 4.001 0 014.591 4.848l-14.09 71.266a4 4 0 004.856 4.77l31.625-7.88a4.002 4.002 0 014.854 4.772l-22.428 106.98c-.756 3.606 4.09 5.476 6.09 2.35l1.335-2.088 116.856-218.384a4.002 4.002 0 00-4.199-5.834l-52.044 9.378a4.001 4.001 0 01-4.633-4.935l30.712-133.052a4.001 4.001 0 00-4.694-4.907l-11.416 2.53z" fill="url(#b-vite)"/>
  <defs>
    <linearGradient id="a-vite" x1="6.001" y1="32.634" x2="235.997" y2="344.648" gradientUnits="userSpaceOnUse">
      <stop stop-color="#41D1FF"/>
      <stop offset="1" stop-color="#BD34FE"/>
    </linearGradient>
    <linearGradient id="b-vite" x1="194.651" y1="8.818" x2="236.076" y2="292.989" gradientUnits="userSpaceOnUse">
      <stop stop-color="#FFBD4F"/>
      <stop offset="1" stop-color="#FF9640"/>
    </linearGradient>
  </defs>
</svg>
