<svg width="623" height="439" viewBox="0 0 623 439" fill="none" xmlns="http://www.w3.org/2000/svg">
<rect width="623" height="439" fill="#F5F5F5"/>
<path d="M182.836 292.191C196.206 292.191 207.058 281.339 207.058 267.969V243.747H182.836C169.467 243.747 158.614 254.6 158.614 267.969C158.614 281.339 169.467 292.191 182.836 292.191Z" fill="#0ACF83"/>
<path d="M158.589 219.5C158.589 206.131 169.442 195.278 182.811 195.278H207.033V243.748H182.811C169.442 243.748 158.589 232.895 158.589 219.526V219.5Z" fill="#A259FF"/>
<path d="M158.589 171.031C158.589 157.662 169.442 146.809 182.811 146.809H207.033V195.278H182.811C169.442 195.278 158.589 184.425 158.589 171.056V171.031Z" fill="#F24E1E"/>
<path d="M206.83 146.809H231.052C244.421 146.809 255.274 157.662 255.274 171.031C255.274 184.4 244.421 195.253 231.052 195.253H206.83V146.809Z" fill="#FF7262"/>
<path d="M255.528 219.5C255.528 232.869 244.675 243.722 231.306 243.722C217.937 243.722 206.83 232.869 206.83 219.5C206.83 206.131 217.683 195.278 231.052 195.278C244.421 195.278 255.274 206.131 255.274 219.5H255.528Z" fill="#1ABCFE"/>
<path d="M282.012 186.966V237.749H288.544V213.501H304.252V207.198H288.544V193.32H308.954V186.966H282.012ZM320.773 197.285C323.136 197.285 325.043 195.379 325.043 193.015C325.043 190.652 323.111 189 320.773 189C318.434 189 316.503 190.906 316.503 193.27C316.503 194.413 316.96 195.481 317.774 196.32C318.587 197.158 319.654 197.59 320.824 197.59L320.773 197.285ZM317.469 203.69V237.749H323.746V203.69H317.265H317.469ZM348.274 202.674C339.581 202.674 333.532 210.299 333.532 218.737C333.532 227.175 339.632 234.75 348.274 234.75C350.072 234.781 351.857 234.438 353.515 233.742C355.174 233.047 356.669 232.013 357.906 230.708V235.233C357.888 237.951 356.834 240.56 354.958 242.527C354.011 243.494 352.879 244.262 351.631 244.785C350.383 245.309 349.043 245.578 347.689 245.577C345.61 245.511 343.596 244.84 341.894 243.645L338.59 249.313C341.127 250.945 344.058 251.863 347.073 251.969C350.088 252.075 353.076 251.366 355.722 249.917C358.368 248.468 360.574 246.332 362.108 243.734C363.642 241.137 364.447 238.173 364.439 235.156V203.64H357.906V206.69C356.669 205.385 355.174 204.351 353.515 203.656C351.857 202.96 350.072 202.642 348.274 202.674ZM340.089 218.737C339.941 217.085 340.257 215.424 341.002 213.941C341.748 212.459 342.893 211.215 344.309 210.35C347.206 208.57 350.841 208.57 353.713 210.35C356.585 212.129 358.211 215.382 357.932 218.737C358.081 220.39 357.765 222.051 357.019 223.533C356.273 225.015 355.128 226.259 353.713 227.125C350.815 228.904 347.181 228.904 344.309 227.125C341.436 225.345 339.81 222.092 340.089 218.737Z" fill="black"/>
<path d="M388 209.333C386.121 209.34 384.321 210.089 382.993 211.418C381.665 212.746 380.915 214.546 380.909 216.424V237.978H374.376V203.919H380.909V206.791C382.891 204.148 386.043 202.623 389.347 202.674C393.515 202.572 397.404 204.809 399.463 208.444C402.004 204.885 405.664 202.725 409.629 202.674C417.076 202.674 421.702 208.672 421.728 216.094V237.774H415.196V216.17C415.387 214.824 415.189 213.452 414.625 212.215C414.061 210.978 413.155 209.929 412.013 209.191C410.872 208.453 409.542 208.058 408.183 208.051C406.824 208.045 405.491 208.428 404.343 209.155C403.201 209.9 402.296 210.957 401.738 212.2C401.179 213.444 400.989 214.822 401.191 216.17V237.724H394.913V216.196C394.906 214.317 394.157 212.517 392.829 211.189C391.5 209.86 389.701 209.111 387.822 209.104L388 209.333ZM456.625 207.554C455.138 206.003 453.35 204.772 451.37 203.937C449.39 203.102 447.26 202.681 445.111 202.699C435.376 202.699 428.59 210.934 428.59 220.491C428.59 230.048 435.453 238.283 445.111 238.283C447.26 238.301 449.39 237.88 451.37 237.045C453.35 236.211 455.138 234.98 456.625 233.428V237.291H463.157V203.233H456.625V207.554ZM435.021 220.771C434.69 216.704 436.673 212.79 440.155 210.655C443.637 208.52 447.78 208.52 451.491 210.655C453.19 211.71 454.568 213.211 455.473 214.994C456.378 216.778 456.777 218.776 456.625 220.771C456.955 224.837 454.973 228.751 451.491 230.886C448.009 233.021 443.866 233.021 440.155 230.886C438.455 229.832 437.078 228.331 436.172 226.547C435.267 224.763 434.869 222.765 435.021 220.771Z" fill="black"/>
</svg>
