<svg width="1728" height="762" viewBox="0 0 1728 762" fill="none" xmlns="http://www.w3.org/2000/svg">
<g clip-path="url(#clip0_10455_584054)">
<mask id="mask0_10455_584054" style="mask-type:alpha" maskUnits="userSpaceOnUse" x="0" y="0" width="1728" height="762">
<rect width="1728" height="762" fill="#FBC7FC"/>
</mask>
<g mask="url(#mask0_10455_584054)">
<path opacity="0.13" d="M566.782 -472.915C264.855 -537.22 13.6121 -431.184 -23.542 -257.063C-60.6961 -82.9428 88.7375 183.78 408.341 253.621C486.189 270.633 552.12 274.162 606.95 266.674M606.95 266.674C777.221 243.421 840.44 113.925 821.086 -47.962C795.501 -261.979 487.623 -268.585 389.164 -96.8787C322.941 18.6089 475.694 130.572 606.95 266.674ZM606.95 266.674C670.845 332.927 729.645 404.901 755.613 485.785C834.925 732.828 726.533 987.933 565.124 928.249C403.715 868.566 578.645 738.994 533.648 579.344C511.725 501.562 376.946 463.039 245.893 469.423M245.893 469.423C107.955 476.143 -25.855 532.613 -19.5972 645.422C-7.39409 865.409 260.837 849.436 300.436 766.42C320.331 724.711 317.147 584.447 245.893 469.423ZM245.893 469.423C175.326 355.507 37.9935 266.347 -209.806 322.195C-707.815 434.434 -699.807 22.2098 -655.255 -37.5356M2051.3 -567.347C1856.33 -511.158 1743.49 -371.896 1775.85 -259.438C1808.21 -146.979 1977.43 -38.5941 2184.36 -97.0448C2234.76 -111.282 2274.08 -129.647 2303.56 -150.963M2303.56 -150.963C2395.08 -217.159 2391.65 -311.814 2330.31 -399.685C2249.22 -515.853 2068.66 -424.368 2064.73 -294.33C2062.09 -206.868 2185.32 -189.241 2303.56 -150.963ZM2303.56 -150.963C2361.11 -132.33 2417.49 -108.804 2457.59 -69.9454C2580.05 48.7376 2596.18 230.206 2484.12 245.571C2372.06 260.936 2433.37 131.654 2357.85 53.0181C2321.06 14.7068 2230.99 34.0964 2156.98 78.3704M2156.98 78.3704C2079.08 124.97 2018.98 199.138 2057.54 262.608C2132.72 386.38 2283.29 294.078 2280.55 233.685C2279.18 203.343 2233.91 123.003 2156.98 78.3704ZM2156.98 78.3704C2080.8 34.1677 1973.57 24.9882 1847.18 134.085C1593.18 353.339 1470.21 111.849 1477.54 63.4158" stroke="#D872B8" stroke-width="18" stroke-linecap="round" stroke-dasharray="60 60"/>
</g>
</g>
<defs>
<clipPath id="clip0_10455_584054">
<rect width="1728" height="762" fill="white"/>
</clipPath>
</defs>
</svg>
