<svg width="1728" height="715" viewBox="0 0 1728 715" fill="none" xmlns="http://www.w3.org/2000/svg">
<mask id="path-1-inside-1_18_169" fill="white">
<path d="M-61.6827 790.344H-60.4773V-46.6561H-61.6827V790.344Z"/>
<path d="M34.7435 790.344H35.9489V-46.6561H34.7435V790.344Z"/>
<path d="M131.178 790.344H132.383V-46.6561H131.178V790.344Z"/>
<path d="M227.604 790.344H228.81V-46.6561H227.604V790.344Z"/>
<path d="M324.043 790.344H325.249V-46.6561H324.043V790.344Z"/>
<path d="M420.469 790.344H421.675V-46.6561H420.469V790.344Z"/>
<path d="M516.904 790.344H518.109V-46.6561H516.904V790.344Z"/>
<path d="M613.334 790.344H614.54V-46.6561H613.334V790.344Z"/>
<path d="M709.769 790.344H710.974V-46.6561H709.769V790.344Z"/>
<path d="M806.195 790.344H807.4V-46.6561H806.195V790.344Z"/>
<path d="M902.63 790.344H903.835V-46.6561H902.63V790.344Z"/>
<path d="M999.06 790.344H1000.27V-46.6561H999.06V790.344Z"/>
<path d="M1095.49 790.344H1096.7V-46.6561H1095.49V790.344Z"/>
<path d="M1191.92 790.344H1193.13V-46.6561H1191.92V790.344Z"/>
<path d="M1288.36 790.344H1289.57V-46.6561H1288.36V790.344Z"/>
<path d="M1384.79 790.344H1385.99V-46.6561H1384.79V790.344Z"/>
<path d="M1481.22 790.344H1482.43V-46.6561H1481.22V790.344Z"/>
<path d="M1577.65 790.344H1578.85V-46.6561H1577.65V790.344Z"/>
<path d="M1674.09 790.344H1675.29V-46.6561H1674.09V790.344Z"/>
<path d="M1770.51 790.344H1771.72V-46.6561H1770.51V790.344Z"/>
<path d="M-158.122 40.1797L1807.88 40.1797V41.3857L-158.122 41.3857V40.1797Z"/>
<path d="M-158.122 136.664H1807.88V137.87H-158.122V136.664Z"/>
<path d="M-158.122 233.148H1807.88V234.354H-158.122V233.148Z"/>
<path d="M-158.122 329.632H1807.88V330.838H-158.122V329.632Z"/>
<path d="M-158.122 426.116H1807.88V427.322H-158.122V426.116Z"/>
<path d="M-158.122 522.6H1807.88V523.806H-158.122V522.6Z"/>
<path d="M-158.122 619.084H1807.88V620.29H-158.122V619.084Z"/>
<path d="M-158.122 715.569H1807.88V716.775H-158.122V715.569Z"/>
</mask>
<path d="M-61.6827 790.344H-60.4773V-46.6561H-61.6827V790.344Z" stroke="#5D1AB4" stroke-width="4" mask="url(#path-1-inside-1_18_169)"/>
<path d="M34.7435 790.344H35.9489V-46.6561H34.7435V790.344Z" stroke="#5D1AB4" stroke-width="4" mask="url(#path-1-inside-1_18_169)"/>
<path d="M131.178 790.344H132.383V-46.6561H131.178V790.344Z" stroke="#5D1AB4" stroke-width="4" mask="url(#path-1-inside-1_18_169)"/>
<path d="M227.604 790.344H228.81V-46.6561H227.604V790.344Z" stroke="#5D1AB4" stroke-width="4" mask="url(#path-1-inside-1_18_169)"/>
<path d="M324.043 790.344H325.249V-46.6561H324.043V790.344Z" stroke="#5D1AB4" stroke-width="4" mask="url(#path-1-inside-1_18_169)"/>
<path d="M420.469 790.344H421.675V-46.6561H420.469V790.344Z" stroke="#5D1AB4" stroke-width="4" mask="url(#path-1-inside-1_18_169)"/>
<path d="M516.904 790.344H518.109V-46.6561H516.904V790.344Z" stroke="#5D1AB4" stroke-width="4" mask="url(#path-1-inside-1_18_169)"/>
<path d="M613.334 790.344H614.54V-46.6561H613.334V790.344Z" stroke="#5D1AB4" stroke-width="4" mask="url(#path-1-inside-1_18_169)"/>
<path d="M709.769 790.344H710.974V-46.6561H709.769V790.344Z" stroke="#5D1AB4" stroke-width="4" mask="url(#path-1-inside-1_18_169)"/>
<path d="M806.195 790.344H807.4V-46.6561H806.195V790.344Z" stroke="#5D1AB4" stroke-width="4" mask="url(#path-1-inside-1_18_169)"/>
<path d="M902.63 790.344H903.835V-46.6561H902.63V790.344Z" stroke="#5D1AB4" stroke-width="4" mask="url(#path-1-inside-1_18_169)"/>
<path d="M999.06 790.344H1000.27V-46.6561H999.06V790.344Z" stroke="#5D1AB4" stroke-width="4" mask="url(#path-1-inside-1_18_169)"/>
<path d="M1095.49 790.344H1096.7V-46.6561H1095.49V790.344Z" stroke="#5D1AB4" stroke-width="4" mask="url(#path-1-inside-1_18_169)"/>
<path d="M1191.92 790.344H1193.13V-46.6561H1191.92V790.344Z" stroke="#5D1AB4" stroke-width="4" mask="url(#path-1-inside-1_18_169)"/>
<path d="M1288.36 790.344H1289.57V-46.6561H1288.36V790.344Z" stroke="#5D1AB4" stroke-width="4" mask="url(#path-1-inside-1_18_169)"/>
<path d="M1384.79 790.344H1385.99V-46.6561H1384.79V790.344Z" stroke="#5D1AB4" stroke-width="4" mask="url(#path-1-inside-1_18_169)"/>
<path d="M1481.22 790.344H1482.43V-46.6561H1481.22V790.344Z" stroke="#5D1AB4" stroke-width="4" mask="url(#path-1-inside-1_18_169)"/>
<path d="M1577.65 790.344H1578.85V-46.6561H1577.65V790.344Z" stroke="#5D1AB4" stroke-width="4" mask="url(#path-1-inside-1_18_169)"/>
<path d="M1674.09 790.344H1675.29V-46.6561H1674.09V790.344Z" stroke="#5D1AB4" stroke-width="4" mask="url(#path-1-inside-1_18_169)"/>
<path d="M1770.51 790.344H1771.72V-46.6561H1770.51V790.344Z" stroke="#5D1AB4" stroke-width="4" mask="url(#path-1-inside-1_18_169)"/>
<path d="M-158.122 40.1797L1807.88 40.1797V41.3857L-158.122 41.3857V40.1797Z" stroke="#5D1AB4" stroke-width="4" mask="url(#path-1-inside-1_18_169)"/>
<path d="M-158.122 136.664H1807.88V137.87H-158.122V136.664Z" stroke="#5D1AB4" stroke-width="4" mask="url(#path-1-inside-1_18_169)"/>
<path d="M-158.122 233.148H1807.88V234.354H-158.122V233.148Z" stroke="#5D1AB4" stroke-width="4" mask="url(#path-1-inside-1_18_169)"/>
<path d="M-158.122 329.632H1807.88V330.838H-158.122V329.632Z" stroke="#5D1AB4" stroke-width="4" mask="url(#path-1-inside-1_18_169)"/>
<path d="M-158.122 426.116H1807.88V427.322H-158.122V426.116Z" stroke="#5D1AB4" stroke-width="4" mask="url(#path-1-inside-1_18_169)"/>
<path d="M-158.122 522.6H1807.88V523.806H-158.122V522.6Z" stroke="#5D1AB4" stroke-width="4" mask="url(#path-1-inside-1_18_169)"/>
<path d="M-158.122 619.084H1807.88V620.29H-158.122V619.084Z" stroke="#5D1AB4" stroke-width="4" mask="url(#path-1-inside-1_18_169)"/>
<path d="M-158.122 715.569H1807.88V716.775H-158.122V715.569Z" stroke="#5D1AB4" stroke-width="4" mask="url(#path-1-inside-1_18_169)"/>
</svg>
