<svg width="264" height="295" viewBox="0 0 264 295" fill="none" xmlns="http://www.w3.org/2000/svg">
<rect width="264" height="295" rx="24" fill="#F5F5F5"/>
<path d="M0 24C0 10.7452 10.7452 0 24 0H240C253.255 0 264 10.7452 264 24V42H0V24Z" fill="#F7F7F7"/>
<rect width="264" height="1" transform="matrix(1 0 0 -1 0 45)" fill="#E5E5E5"/>
<ellipse cx="24.2766" cy="20.5" rx="6.27656" ry="6.5" fill="#EB6C64"/>
<ellipse cx="42.3945" cy="20.5" rx="6.27656" ry="6.5" fill="#F1C05D"/>
<ellipse cx="60.5222" cy="20.5" rx="6.27656" ry="6.5" fill="#66CB5B"/>
<rect x="24" y="59" width="217.972" height="49" rx="6" fill="#DCDDE0"/>
<rect x="24" y="117" width="220" height="9" rx="4.5" fill="#D1D5DC"/>
<rect x="24" y="135" width="220" height="9" rx="4.5" fill="#D1D5DC"/>
<rect x="24" y="153" width="116.59" height="9" rx="4.5" fill="#D1D5DC"/>
<rect x="24" y="186" width="104" height="39" rx="6" fill="#DCDDE0"/>
<rect x="138" y="186" width="104" height="39" rx="6" fill="#DCDDE0"/>
<rect x="24" y="234" width="104" height="7" rx="3.5" fill="#D1D5DC"/>
<rect x="138" y="234" width="104" height="7" rx="3.5" fill="#D1D5DC"/>
<rect x="24" y="246" width="55" height="7" rx="3.5" fill="#D1D5DC"/>
<rect x="138" y="246" width="55" height="7" rx="3.5" fill="#D1D5DC"/>
</svg>
